<svg width="24" height="24" viewBox="0 0 24 24" fill="none" xmlns="http://www.w3.org/2000/svg">
<path fill-rule="evenodd" clip-rule="evenodd" d="M12 5.8501C8.62498 5.8501 5.84998 8.6251 5.84998 12.0001C5.84998 15.3751 8.62498 18.1501 12 18.1501C15.375 18.1501 18.15 15.3751 18.15 12.0001C18.15 8.6251 15.375 5.8501 12 5.8501ZM12 15.9751C9.82498 15.9751 8.02497 14.1751 8.02497 12.0001C8.02497 9.8251 9.82498 8.0251 12 8.0251C14.175 8.0251 15.975 9.8251 15.975 12.0001C15.975 14.1751 14.175 15.9751 12 15.9751Z" fill="white"/>
<path d="M18.45 7.04995C19.2 7.04995 19.875 6.44995 19.875 5.62495C19.875 4.79995 19.2 4.19995 18.45 4.19995C17.7 4.19995 17.025 4.87495 17.025 5.62495C17.025 6.37495 17.7 7.04995 18.45 7.04995Z" fill="white"/>
<path fill-rule="evenodd" clip-rule="evenodd" d="M12 0C8.775 0 8.325 0 7.05 0.075C5.775 0.15 4.875 0.3 4.125 0.6C3.3 0.9 2.7 1.35 2.025 1.95C1.35 2.7 0.9 3.375 0.6 4.125C0.3 4.875 0.075 5.775 0.075 7.05C0 8.325 0 8.775 0 12C0 15.225 0 15.675 0.075 16.95C0.15 18.225 0.3 19.125 0.6 19.875C0.9 20.7 1.35 21.3 1.95 21.975C2.625 22.65 3.3 23.025 4.05 23.325C4.8 23.625 5.7 23.85 6.975 23.85C8.325 24 8.775 24 12 24C15.225 24 15.675 24 16.95 23.925C18.225 23.85 19.125 23.7 19.875 23.4C20.7 23.1 21.3 22.65 21.975 22.05C22.65 21.375 23.025 20.7 23.325 19.95C23.625 19.2 23.85 18.3 23.85 17.025C24 15.675 24 15.225 24 12C24 8.775 24 8.325 23.925 7.05C23.85 5.775 23.7 4.875 23.4 4.125C23.1 3.3 22.65 2.7 22.05 2.025C21.375 1.35 20.7 0.975 19.95 0.675C19.2 0.375 18.3 0.15 17.025 0.15C15.675 0 15.225 0 12 0ZM12 2.175C15.225 2.175 15.6 2.175 16.875 2.25C18.075 2.325 18.675 2.475 19.125 2.625C19.65 2.85 20.1 3.075 20.475 3.525C20.85 3.975 21.15 4.35 21.375 4.875C21.525 5.325 21.75 6 21.75 7.125C21.825 8.4 21.825 8.775 21.825 12C21.825 15.225 21.825 15.6 21.75 16.875C21.675 18.075 21.525 18.675 21.3 19.125C21.075 19.65 20.85 20.1 20.4 20.475C19.95 20.85 19.575 21.15 19.05 21.375L18.9603 21.4051C18.5195 21.5536 17.922 21.7549 16.8 21.825C15.525 21.9 15.15 21.9 11.925 21.9C8.7 21.9 8.325 21.9 7.05 21.825C5.85 21.75 5.25 21.6 4.8 21.375C4.275 21.15 3.825 20.925 3.45 20.475C3 20.025 2.775 19.65 2.55 19.125C2.53223 19.0184 2.50603 18.8991 2.4764 18.7642C2.38099 18.3298 2.25 17.7334 2.25 16.875C2.175 15.6 2.175 15.225 2.175 12C2.175 8.77506 2.175 8.4 2.25 7.125C2.25 6 2.475 5.325 2.625 4.95C2.85 4.425 3.075 3.975 3.525 3.6C3.975 3.225 4.35 2.925 4.875 2.7C5.325 2.475 6 2.25 7.125 2.25C8.4 2.175 8.77506 2.175 12 2.175Z" fill="white"/>
</svg>
