<svg width="18" height="21" viewBox="0 0 18 21" fill="none" xmlns="http://www.w3.org/2000/svg">
<path d="M9 7.5C8.17157 7.5 7.5 8.17157 7.5 9V9.01C7.5 9.83843 8.17157 10.51 9 10.51H9.01C9.83843 10.51 10.51 9.83843 10.51 9.01V9C10.51 8.17157 9.83843 7.5 9.01 7.5H9Z" fill="#190F14"/>
<path fill-rule="evenodd" clip-rule="evenodd" d="M14.7071 3.29365C11.5552 0.1417 6.44487 0.1417 3.29292 3.29365C0.14097 6.4456 0.140966 11.5559 3.29292 14.7079L9.00002 20.415L14.7071 14.7079C17.8591 11.5559 17.8591 6.4456 14.7071 3.29365ZM4.70713 4.70786C7.07803 2.33696 10.922 2.33696 13.2929 4.70786C15.6638 7.07876 15.6638 10.9228 13.2929 13.2937L9.00002 17.5865L4.70713 13.2936C2.33623 10.9227 2.33623 7.07876 4.70713 4.70786Z" fill="#190F14"/>
</svg>
