<svg width="18" height="18" viewBox="0 0 18 18" fill="none" xmlns="http://www.w3.org/2000/svg">
<path fill-rule="evenodd" clip-rule="evenodd" d="M15.9712 15.9672C8.48423 15.4749 2.49629 9.48697 2.00396 2.00001L5.97119 2.00001C5.97217 2.00001 5.97105 1.99995 5.97119 2.00001C5.97222 2.00044 5.97806 2.003 5.98614 2.01083C6.0041 2.02826 6.02151 2.059 6.02529 2.09707C6.10393 2.89047 6.26695 3.6595 6.50531 4.39481L4.93315 5.96698L5.23864 6.60534C6.51969 9.28225 8.68895 11.4515 11.3659 12.7326L12.0042 13.038L13.5764 11.4659C14.3117 11.7042 15.0807 11.8673 15.8741 11.9459C15.9122 11.9497 15.9429 11.9671 15.9604 11.9851C15.9682 11.9931 15.9708 11.9987 15.9712 11.9997C15.9713 11.9998 15.9712 11.9987 15.9712 11.9997L15.9712 15.9672ZM15.9095 17.9674C17.076 18.0393 17.9712 17.0881 17.9712 16L17.9712 12C17.9712 10.8731 17.0701 10.0547 16.0714 9.95567C15.2357 9.87282 14.4342 9.67576 13.6824 9.38046L13.0728 9.14103L11.6076 10.6062C9.83159 9.61227 8.35893 8.13961 7.36497 6.36358L8.83017 4.89839L8.59073 4.2888C8.29544 3.53697 8.09838 2.73554 8.01553 1.89978C7.91654 0.901142 7.09806 7.49973e-06 5.97119 7.4863e-06L1.97119 7.4386e-06C0.883137 7.42562e-06 -0.0681074 0.895242 0.00384159 2.06175C0.530798 10.6054 7.36577 17.4404 15.9095 17.9674Z" fill="white"/>
</svg>
