<svg width="56" height="45" viewBox="0 0 56 45" fill="none" xmlns="http://www.w3.org/2000/svg">
<path d="M11.8165 9.8842C11.8464 8.66008 11.8872 6.99369 11.928 5.89209C11.984 3.96009 12.404 2.78409 13.188 2.05609C14.28 1.07609 15.568 0.852087 18.648 0.684086C25.76 0.292087 33.012 0.348086 42.112 0.992086C43.064 1.04809 43.428 1.24409 43.596 1.35609C43.988 1.63609 44.044 1.94409 44.156 3.54009C44.212 4.46409 44.352 6.92809 44.408 8.27209C41.272 8.10409 35.952 7.85209 31.332 7.79609C26.712 7.74009 22.54 7.82409 22.036 7.88009C21.028 8.02009 20.552 8.49609 20.412 8.69209L44.464 13.1441V16.6441L11.788 11.0161C11.7956 10.7349 11.8053 10.3402 11.8165 9.8842Z" fill="white"/>
<path fill-rule="evenodd" clip-rule="evenodd" d="M33.236 37.2521C31.192 37.2521 30.268 38.3441 30.268 40.0521V44.9241H32.312V42.6841H40.04V44.9241H42.084V37.2521H33.236ZM40.04 38.7641V41.2001H32.312V40.5281C32.312 39.4641 32.48 38.7641 33.712 38.7641H40.04Z" fill="white"/>
<path d="M44.548 37.2521V38.7641H49.336V44.9521H51.38V38.7641H56.168V37.2521H44.548Z" fill="white"/>
<path d="M17.22 41.9841C17.22 43.0481 17.444 43.4401 18.62 43.4401H27.104V44.9521H18.144C16.1 44.9521 15.176 44.0281 15.176 42.3201V37.2801H27.104V38.7921H17.22V40.3041H26.712V41.7601H17.22V41.9841Z" fill="white"/>
<path d="M2.68798 39.9121C2.07198 39.8561 1.95998 39.6321 1.95998 39.2681C1.95998 38.9321 2.15598 38.7081 2.63198 38.7081H11.984V37.2241H2.37998C1.00798 37.2241 0.0839844 37.7561 0.0839844 39.2681C0.0839844 40.8081 0.783984 41.3121 2.35198 41.4521L9.93998 42.0961C10.528 42.1521 10.696 42.3481 10.696 42.7681C10.696 43.1601 10.528 43.4121 9.99598 43.4121H0.475984V44.9241H10.164C11.844 44.9241 12.572 44.2521 12.572 42.6841C12.572 41.2561 11.9 40.6681 10.276 40.5281L2.68798 39.9121Z" fill="white"/>
<path d="M44.436 18.8001L11.76 12.7241V16.6721L35.588 20.7321C35.112 21.4881 34.16 21.6841 33.432 21.6841C33.0107 21.6841 32.0657 21.6783 31.0373 21.672C29.81 21.6644 28.464 21.6561 27.748 21.6561C22.484 21.6561 16.016 21.4321 11.788 21.1521C11.8037 21.4509 11.8261 21.9152 11.8519 22.4527C11.9182 23.8295 12.0076 25.6867 12.068 26.4721C12.18 28.0681 12.236 28.3761 12.628 28.6561C12.796 28.7681 13.16 28.9641 14.112 29.0201C23.212 29.6641 30.464 29.7201 37.576 29.3281C40.656 29.1601 41.944 28.9361 43.036 27.9561C43.82 27.2281 44.24 26.0521 44.296 24.1201C44.3306 23.1176 44.3651 21.6669 44.3931 20.4927C44.4105 19.7647 44.4253 19.143 44.436 18.8001Z" fill="white"/>
</svg>
