<svg width="24" height="18" viewBox="0 0 24 18" fill="none" xmlns="http://www.w3.org/2000/svg">
<path fill-rule="evenodd" clip-rule="evenodd" d="M23.4982 3.37365C24 5.24545 24 9.15 24 9.15C24 9.15 24 13.0553 23.4982 14.9263C23.2222 15.9591 22.4093 16.7721 21.3765 17.0485C19.5053 17.55 12 17.55 12 17.55C12 17.55 4.49475 17.55 2.6235 17.0485C1.59075 16.7721 0.77775 15.9591 0.50175 14.9263C0 13.0553 0 9.15 0 9.15C0 9.15 0 5.24545 0.50175 3.37365C0.77775 2.34088 1.59075 1.52793 2.6235 1.25148C4.49475 0.75 12 0.75 12 0.75C12 0.75 19.5053 0.75 21.3765 1.25148C22.4093 1.52793 23.2222 2.34088 23.4982 3.37365ZM9.6 12.75L15.6 9.15L9.6 5.55V12.75Z" fill="white"/>
</svg>
